<svg width="365" height="220" viewBox="0 0 365 220" fill="none" xmlns="http://www.w3.org/2000/svg">
<rect width="365" height="220" rx="30" fill="#F84444"/>
<g opacity="0.1">
<mask id="mask0_1_384" style="mask-type:alpha" maskUnits="userSpaceOnUse" x="0" y="0" width="365" height="220">
<rect width="365" height="220" rx="30" fill="#F84444"/>
</mask>
<g mask="url(#mask0_1_384)">
<path d="M87 214C66.4308 214 46.3235 207.901 29.2207 196.473C12.118 185.045 -1.21191 168.803 -9.08342 149.799C-16.9549 130.796 -19.0145 109.885 -15.0016 89.7107C-10.9888 69.5366 -1.08372 51.0056 13.4609 36.4609C28.0056 21.9163 46.5366 12.0112 66.7107 7.99838C86.8847 3.98551 107.796 6.04506 126.799 13.9166C145.803 21.7881 162.045 35.118 173.473 52.2207C184.901 69.3235 191 89.4308 191 110C191 137.583 180.043 164.035 160.539 183.539C141.035 203.043 114.583 214 87 214ZM87 22C69.5953 22 52.5814 27.1612 38.1099 36.8307C23.6383 46.5003 12.3592 60.244 5.69865 76.3239C-0.961865 92.4038 -2.70456 110.098 0.690941 127.168C4.08644 144.238 12.4676 159.918 24.7747 172.225C37.0817 184.532 52.7618 192.914 69.8321 196.309C86.9024 199.705 104.596 197.962 120.676 191.301C136.756 184.641 150.5 173.362 160.169 158.89C169.839 144.419 175 127.405 175 110C175 86.661 165.729 64.2779 149.225 47.7747C132.722 31.2715 110.339 22 87 22Z" fill="#D9D9D9"/>
<path d="M53.08 151.92C52.0272 151.926 50.9835 151.724 50.0088 151.326C49.0341 150.928 48.1476 150.342 47.4 149.6C45.91 148.101 45.0737 146.074 45.0737 143.96C45.0737 141.847 45.91 139.819 47.4 138.32L115.32 70.4001C116.061 69.6332 116.945 69.0196 117.923 68.5945C118.901 68.1694 119.953 67.9411 121.019 67.9225C122.085 67.9039 123.144 68.0955 124.136 68.4863C125.128 68.8771 126.033 69.4594 126.8 70.2001C127.567 70.9407 128.18 71.8252 128.606 72.803C129.031 73.7807 129.259 74.8326 129.278 75.8987C129.296 76.9647 129.105 78.0239 128.714 79.0159C128.323 80.0079 127.741 80.9132 127 81.6801L58.68 150C57.1276 151.333 55.1236 152.02 53.08 151.92Z" fill="#D9D9D9"/>
<path d="M120.92 151.92C118.821 151.911 116.81 151.078 115.32 149.6L47.4 81.68C46.0894 80.1496 45.4046 78.181 45.4824 76.1676C45.5601 74.1542 46.3948 72.2443 47.8195 70.8195C49.2443 69.3948 51.1542 68.5601 53.1676 68.4823C55.181 68.4046 57.1496 69.0894 58.68 70.4L127 138.32C127.799 139.068 128.436 139.973 128.872 140.977C129.308 141.982 129.532 143.065 129.532 144.16C129.532 145.255 129.308 146.338 128.872 147.343C128.436 148.347 127.799 149.252 127 150C126.172 150.72 125.206 151.262 124.16 151.592C123.114 151.922 122.011 152.034 120.92 151.92Z" fill="#D9D9D9"/>
</g>
</g>
</svg>
